<svg xmlns="http://www.w3.org/2000/svg" width="30" height="26" viewBox="0 0 30 26">
    <g fill="#F79779" fill-rule="nonzero">
        <path d="M22.223 10.582a3.176 3.176 0 1 0-.002-6.35 3.176 3.176 0 0 0 .002 6.35z"/>
        <path d="M27.779 0H1.852C.82 0 0 .84 0 1.872v21.654c0 1.032.82 1.872 1.852 1.872h25.927c1.031 0 1.852-.84 1.852-1.872V1.872C29.63.84 28.81 0 27.779 0zm-6.82 13.076a1.136 1.136 0 0 0-.846-.41c-.337 0-.575.158-.847.377l-1.236 1.045c-.258.185-.463.31-.76.31-.285 0-.543-.105-.728-.27a8.642 8.642 0 0 1-.285-.272l-3.558-3.85a1.459 1.459 0 0 0-1.105-.495c-.443 0-.853.218-1.11.516L2.115 20.12V2.89c.067-.45.417-.774.867-.774H26.64a.84.84 0 0 1 .853.794l.02 17.223-6.554-7.057z"/>
    </g>
</svg>
