<svg xmlns="http://www.w3.org/2000/svg" width="30" height="20" viewBox="0 0 30 20">
    <path fill="#E08089" fill-rule="nonzero" d="M2.302 16.27l1.057-2.4L.672 7.39C.224 6.348 0 5.686 0 5.403c0-.442.151-.797.454-1.067.31-.27.672-.405 1.087-.405.777 0 1.314.398 1.61 1.195l1.867 4.87 1.758-4.346c.25-.58.5-1.011.751-1.294.25-.284.573-.425.968-.425.481 0 .87.145 1.166.434.303.284.454.672.454 1.166 0 .336-.128.8-.385 1.393L5.058 17.929c-.224.534-.445.919-.662 1.156-.211.244-.563.365-1.057.365-.507 0-.896-.154-1.166-.464-.263-.31-.395-.629-.395-.958 0-.264.033-.5.099-.711.072-.211.214-.56.425-1.047m8.801-4.06l5.443-10.481c.303-.573.563-.994.78-1.264.218-.277.484-.415.8-.415.35 0 .626.095.83.286.204.191.306.458.306.8 0 .323-.256.972-.77 1.946l-5.443 10.481c-.263.533-.517.948-.76 1.245-.238.29-.51.434-.82.434-.343 0-.616-.095-.82-.286-.204-.191-.307-.461-.307-.81 0-.336.254-.981.761-1.936m9.108 1.165V5.572c0-.468.145-.857.434-1.166.297-.316.675-.474 1.136-.474.382 0 .712.102.988.306.283.198.48.431.593.701.514-.81 1.419-1.215 2.716-1.215.745 0 1.413.135 2.006.405.599.27 1.066.685 1.402 1.245.343.553.514 1.251.514 2.094v5.907c0 .474-.148.87-.445 1.186-.296.316-.675.474-1.136.474-.46 0-.84-.162-1.135-.484a1.675 1.675 0 0 1-.445-1.176V8.337c0-.573-.155-1.033-.464-1.383-.303-.355-.728-.533-1.275-.533-.54 0-.964.178-1.274.533-.31.356-.464.817-.464 1.383v5.038c0 .468-.148.863-.445 1.186-.29.316-.668.474-1.136.474-.46 0-.84-.158-1.136-.474-.29-.323-.434-.718-.434-1.186"/>
</svg>
