<svg xmlns="http://www.w3.org/2000/svg" width="30" height="31" viewBox="0 0 30 31">
    <path fill="#5587A2" fill-rule="nonzero" d="M15 .7C6.716.7 0 7.416 0 15.7c0 8.284 6.716 15 15 15 8.284 0 15-6.716 15-15 0-8.284-6.716-15-15-15zm-1.554 27.764a12.76 12.76 0 0 1-7.537-3.673A12.773 12.773 0 0 1 2.143 15.7c0-3.092 1.084-6.016 3.072-8.34.051.613.178 1.272.145 1.743-.118 1.716-.287 2.79.717 4.237.391.564.488 1.372.678 2.025.186.639.93.973 1.444 1.367 1.035.794 2.026 1.717 3.124 2.415.725.461 1.177.69.965 1.575-.17.711-.218 1.15-.586 1.783-.113.193.423 1.437.602 1.615.54.54 1.077 1.037 1.667 1.523.913.755-.09 1.736-.525 2.821zm10.645-3.673a12.765 12.765 0 0 1-6.674 3.54c.356-.881.99-1.664 1.579-2.118.511-.395 1.152-1.154 1.42-1.756.267-.6.62-1.122.979-1.674.51-.786-1.256-1.971-1.828-2.22-1.288-.559-2.257-1.313-3.401-2.118-.816-.574-2.47.3-3.391-.102-1.261-.55-2.3-1.507-3.395-2.333-1.131-.851-1.076-1.844-1.076-3.1.885.032 2.145-.245 2.733.467.186.225.824 1.229 1.25.872.35-.292-.258-1.46-.375-1.735-.36-.845.822-1.174 1.428-1.747.79-.748 2.486-1.92 2.352-2.456-.134-.535-1.696-2.053-2.614-1.816-.138.035-1.349 1.305-1.582 1.504l.018-1.243c.004-.262-.488-.53-.465-.7.058-.426 1.245-1.2 1.54-1.54-.207-.129-.913-.735-1.126-.646-.518.216-1.102.364-1.62.58 0-.18-.021-.348-.047-.515a12.734 12.734 0 0 1 3.267-.948l1.016.408.717.851.716.738.626.202.993-.938-.256-.669v-.6a12.717 12.717 0 0 1 5.446 2.148c-.29.026-.61.069-.97.115-.15-.088-.34-.128-.503-.19.471 1.013.962 2.012 1.462 3.011.533 1.068 1.715 2.212 1.923 3.34.245 1.327.075 2.534.209 4.096.129 1.505 1.696 3.214 1.696 3.214s.724.247 1.326.161a12.778 12.778 0 0 1-3.373 5.917z"/>
</svg>
