<svg xmlns="http://www.w3.org/2000/svg" width="30" height="30" viewBox="0 0 30 30">
    <g fill="#28A8D3" fill-rule="nonzero">
        <path d="M29.594 2.781L27.219.406a1.391 1.391 0 0 0-1.961 0l-2.485 2.485 4.336 4.336 2.485-2.477a1.4 1.4 0 0 0 0-1.969zM22.04 3.633L8.601 17.5l-1.102 5 5-1.102L26.297 7.883z"/>
        <path d="M25 15v11.719c0 .398-.305.789-.719.789L3.266 27.5c-.438 0-.766-.422-.766-.781V5.78c0-.39.367-.781.828-.781H15l2.5-2.5H1.828A1.814 1.814 0 0 0 0 4.32v23.852A1.83 1.83 0 0 0 1.828 30H25.68c1.008 0 1.82-.82 1.82-1.828V12.5L25 15z"/>
    </g>
</svg>
