<svg xmlns="http://www.w3.org/2000/svg" width="15" height="15" viewBox="0 0 15 15">
    <path fill="#8492A6" fill-rule="nonzero" stroke="#979797" stroke-width=".1" d="M8.018 3.389H6.873v4.547l3.627 2.16.573-.947-3.055-1.781v-3.98zM7.636.357C3.818.357.764 3.427.764 7.178.764 10.93 3.818 14 7.636 14c3.78 0 6.873-3.07 6.873-6.822 0-3.752-3.092-6.821-6.873-6.821zm0 12.127c-2.94 0-5.345-2.387-5.345-5.306 0-2.918 2.405-5.305 5.345-5.305s5.346 2.387 5.346 5.305c0 2.956-2.405 5.306-5.346 5.306z" opacity=".496"/>
</svg>
